<svg width="16" height="16" viewBox="0 0 16 16" fill="none" xmlns="http://www.w3.org/2000/svg">
<circle cx="8" cy="8" r="8" fill="#393631"/>
<path d="M3.125 8.375H4.12163C4.08428 8.47894 4.07857 8.59162 4.10524 8.6988C4.13191 8.80598 4.18976 8.90285 4.27147 8.97716L5.8108 10.3881L5.81094 10.388C5.81223 10.3891 5.81328 10.3904 5.81471 10.3916L8.24736 12.5H8.1875C8.13777 12.5 8.09008 12.5198 8.05492 12.5549C8.01975 12.5901 8 12.6378 8 12.6875V13.4375C8 13.4872 8.01975 13.5349 8.05492 13.5701C8.09008 13.6052 8.13777 13.625 8.1875 13.625H10.4375C10.4872 13.625 10.5349 13.6052 10.5701 13.5701C10.6052 13.5349 10.625 13.4872 10.625 13.4375V12.6875C10.625 12.6378 10.6052 12.5901 10.5701 12.5549C10.5349 12.5198 10.4872 12.5 10.4375 12.5V12.2026L10.5379 12.1022C10.6252 12.0154 10.6945 11.9121 10.7416 11.7983C10.7887 11.6845 10.8128 11.5625 10.8125 11.4393V10.2906L11.4922 8.79531C11.5527 8.6629 11.5592 8.51214 11.5104 8.375H12.875C13.0241 8.37483 13.1671 8.31551 13.2726 8.21006C13.378 8.1046 13.4373 7.96163 13.4375 7.8125V7.4375C13.4375 7.38777 13.4177 7.34008 13.3826 7.30492C13.3474 7.26975 13.2997 7.25 13.25 7.25H12.5V7.0625C12.5 4.89134 10.7337 3.125 8.5625 3.125V2.75H8.75C8.79973 2.75 8.84742 2.73025 8.88258 2.69508C8.91775 2.65992 8.9375 2.61223 8.9375 2.5625C8.9375 2.51277 8.91775 2.46508 8.88258 2.42992C8.84742 2.39475 8.79973 2.375 8.75 2.375H7.25C7.20027 2.375 7.15258 2.39475 7.11742 2.42992C7.08225 2.46508 7.0625 2.51277 7.0625 2.5625C7.0625 2.61223 7.08225 2.65992 7.11742 2.69508C7.15258 2.73025 7.20027 2.75 7.25 2.75H7.4375V3.125C5.26634 3.125 3.5 4.89134 3.5 7.0625V7.25H2.75C2.70027 7.25 2.65258 7.26975 2.61742 7.30492C2.58225 7.34008 2.5625 7.38777 2.5625 7.4375V7.8125C2.56267 7.96163 2.62199 8.1046 2.72744 8.21006C2.8329 8.31551 2.97587 8.37483 3.125 8.375V8.375ZM4.4768 8.49453C4.49 8.45898 4.51389 8.4284 4.54518 8.40699C4.57648 8.38559 4.61364 8.37441 4.65155 8.375H4.75859C4.79458 8.37504 4.8298 8.38543 4.86006 8.40491C4.89032 8.42439 4.91435 8.45215 4.92929 8.4849L5.07024 8.79498V8.79526L5.38618 9.4903L4.52485 8.70078C4.49649 8.67559 4.47665 8.64223 4.46804 8.60529C4.45944 8.56836 4.4625 8.52966 4.4768 8.49453V8.49453ZM10.25 13.25H8.375V12.875H10.25V13.25ZM11.1378 8.46099C11.155 8.48725 11.1653 8.51749 11.1676 8.54884C11.1699 8.58018 11.1641 8.61159 11.1508 8.64008L10.4543 10.1724C10.4432 10.1968 10.4375 10.2232 10.4375 10.25V11.4393C10.4377 11.5132 10.4232 11.5864 10.395 11.6547C10.3667 11.723 10.3251 11.785 10.2728 11.8371L10.1174 11.9924C10.1 12.0098 10.0862 12.0305 10.0768 12.0532C10.0673 12.076 10.0625 12.1004 10.0625 12.125V12.5H8.81994L6.09125 10.1352L5.41156 8.6401C5.39857 8.61153 5.39296 8.58016 5.39525 8.54886C5.39753 8.51755 5.40764 8.48733 5.42463 8.46094C5.44163 8.43456 5.46498 8.41287 5.49254 8.39785C5.5201 8.38284 5.55099 8.37498 5.58238 8.375H5.70573C5.74057 8.37488 5.77476 8.38452 5.8044 8.40284C5.83405 8.42116 5.85797 8.44742 5.87345 8.47864L6.5198 9.77136C6.54034 9.81243 6.57523 9.84454 6.61787 9.86159L8.49287 10.6116C8.52946 10.6262 8.56973 10.629 8.60797 10.6194L9.35797 10.4319C9.38311 10.4256 9.40668 10.4142 9.42719 10.3983C9.44769 10.3825 9.46469 10.3625 9.4771 10.3398L10.4955 8.47271C10.5116 8.44313 10.5354 8.41845 10.5644 8.40126C10.5934 8.38406 10.6265 8.37499 10.6602 8.375H10.9802C11.0116 8.37471 11.0426 8.38246 11.0701 8.39751C11.0977 8.41256 11.121 8.43441 11.1378 8.46099V8.46099ZM6.24088 8.375H10.1217L9.18727 10.088L8.57584 10.2409L6.82344 9.53984L6.24088 8.375ZM7.8125 2.75H8.1875V3.125H7.8125V2.75ZM3.875 7.0625C3.875 5.09813 5.47313 3.5 7.4375 3.5H8.5625C10.5269 3.5 12.125 5.09813 12.125 7.0625V7.25H3.875V7.0625ZM2.9375 7.625H13.0625V7.8125C13.0624 7.86221 13.0427 7.90987 13.0075 7.94502C12.9724 7.98017 12.9247 7.99994 12.875 8H3.125C3.07529 7.99994 3.02763 7.98017 2.99248 7.94502C2.95733 7.90987 2.93756 7.86221 2.9375 7.8125V7.625Z" fill="#FDD277"/>
</svg>
