<svg width="83" height="28" viewBox="0 0 83 28" fill="none" xmlns="http://www.w3.org/2000/svg">
<path d="M35.3207 14.3591C35.3207 18.2456 32.2723 21.1096 28.5312 21.1096C24.7901 21.1096 21.7417 18.2456 21.7417 14.3591C21.7417 10.4452 24.7901 7.60869 28.5312 7.60869C32.2723 7.60869 35.3207 10.4452 35.3207 14.3591ZM32.3486 14.3591C32.3486 11.9304 30.5818 10.2687 28.5312 10.2687C26.4806 10.2687 24.7138 11.9304 24.7138 14.3591C24.7138 16.7635 26.4806 18.4496 28.5312 18.4496C30.5818 18.4496 32.3486 16.7604 32.3486 14.3591Z" fill="#EA4335"/>
<path d="M49.9677 14.3591C49.9677 18.2456 46.9193 21.1096 43.1782 21.1096C39.4371 21.1096 36.3887 18.2456 36.3887 14.3591C36.3887 10.4483 39.4371 7.60869 43.1782 7.60869C46.9193 7.60869 49.9677 10.4452 49.9677 14.3591ZM46.9956 14.3591C46.9956 11.9304 45.2288 10.2687 43.1782 10.2687C41.1276 10.2687 39.3608 11.9304 39.3608 14.3591C39.3608 16.7635 41.1276 18.4496 43.1782 18.4496C45.2288 18.4496 46.9956 16.7604 46.9956 14.3591Z" fill="#FBBC05"/>
<path d="M64.0046 8.01651V20.1356C64.0046 25.1209 61.0569 27.1569 57.5721 27.1569C54.2918 27.1569 52.3175 24.9687 51.5729 23.1791L54.1606 22.1048C54.6214 23.2035 55.7504 24.5 57.5691 24.5C59.7997 24.5 61.182 23.1274 61.182 20.5435V19.5726H61.0783C60.4131 20.3913 59.1314 21.1065 57.5142 21.1065C54.1301 21.1065 51.0298 18.1665 51.0298 14.3835C51.0298 10.573 54.1301 7.60869 57.5142 7.60869C59.1284 7.60869 60.41 8.32391 61.0783 9.11825H61.182V8.01956H64.0046V8.01651ZM61.3926 14.3835C61.3926 12.0065 59.8028 10.2687 57.7796 10.2687C55.7291 10.2687 54.0111 12.0065 54.0111 14.3835C54.0111 16.7361 55.7291 18.4496 57.7796 18.4496C59.8028 18.4496 61.3926 16.7361 61.3926 14.3835Z" fill="#4285F4"/>
<path d="M68.6582 0.91304V20.6956H65.7593V0.91304H68.6582Z" fill="#34A853"/>
<path d="M79.9547 16.5809L82.2617 18.1148C81.5171 19.2135 79.7228 21.1065 76.6225 21.1065C72.7777 21.1065 69.9062 18.1422 69.9062 14.3561C69.9062 10.3417 72.8021 7.60565 76.2899 7.60565C79.8022 7.60565 81.5202 10.3935 82.0816 11.9L82.3898 12.667L73.3422 16.4043C74.0349 17.7587 75.1121 18.4496 76.6225 18.4496C78.1361 18.4496 79.1858 17.707 79.9547 16.5809ZM72.854 14.1522L78.902 11.6474C78.5694 10.8043 77.5685 10.217 76.3906 10.217C74.8801 10.217 72.7777 11.547 72.854 14.1522Z" fill="#EA4335"/>
<path d="M10.7687 12.603V9.73913H20.4449C20.5395 10.2383 20.5883 10.8287 20.5883 11.4678C20.5883 13.6165 19.9993 16.2735 18.1013 18.1665C16.2552 20.0839 13.8964 21.1065 10.7717 21.1065C4.98001 21.1065 0.109863 16.4013 0.109863 10.6248C0.109863 4.84826 4.98001 0.143044 10.7717 0.143044C13.9757 0.143044 16.2582 1.39696 17.9732 3.0313L15.947 5.05217C14.7173 3.90174 13.0512 3.00696 10.7687 3.00696C6.53931 3.00696 3.23152 6.40652 3.23152 10.6248C3.23152 14.843 6.53931 18.2426 10.7687 18.2426C13.5119 18.2426 15.0743 17.1439 16.0752 16.1457C16.8869 15.3361 17.4209 14.1796 17.6314 12.6L10.7687 12.603Z" fill="#4285F4"/>
</svg>
