<svg width="353" height="108" viewBox="0 0 353 108" fill="none" xmlns="http://www.w3.org/2000/svg">
<path d="M133.363 85.1533L125.335 70.9743H121.895V85.1533H114.597V48.7675H128.255C131.07 48.7675 133.467 49.2714 135.448 50.2793C137.429 51.2523 138.906 52.5903 139.879 54.2932C140.887 55.9613 141.391 57.8379 141.391 59.9231C141.391 62.321 140.696 64.493 139.306 66.4391C137.916 68.3505 135.848 69.6711 133.103 70.4009L141.808 85.1533H133.363ZM121.895 65.5008H127.994C129.975 65.5008 131.452 65.0317 132.425 64.0933C133.398 63.1203 133.884 61.7823 133.884 60.0794C133.884 58.4113 133.398 57.1255 132.425 56.2219C131.452 55.2836 129.975 54.8145 127.994 54.8145H121.895V65.5008ZM174.838 70.0881C174.838 71.1307 174.769 72.069 174.63 72.9031H153.517C153.691 74.9882 154.421 76.6216 155.707 77.8032C156.993 78.9848 158.574 79.5756 160.451 79.5756C163.161 79.5756 165.09 78.4113 166.237 76.0829H174.108C173.274 78.8631 171.676 81.1568 169.312 82.9639C166.949 84.7363 164.047 85.6225 160.607 85.6225C157.827 85.6225 155.325 85.0143 153.1 83.798C150.911 82.5469 149.191 80.7919 147.94 78.533C146.723 76.2741 146.115 73.6676 146.115 70.7137C146.115 67.725 146.723 65.1012 147.94 62.8423C149.156 60.5834 150.859 58.8457 153.048 57.6294C155.238 56.4131 157.757 55.8049 160.607 55.8049C163.352 55.8049 165.802 56.3957 167.957 57.5773C170.146 58.7589 171.832 60.4443 173.014 62.6337C174.23 64.7884 174.838 67.2732 174.838 70.0881ZM167.279 68.003C167.245 66.1264 166.567 64.632 165.246 63.5199C163.926 62.3731 162.31 61.7997 160.398 61.7997C158.591 61.7997 157.062 62.3557 155.811 63.4678C154.595 64.5451 153.848 66.0569 153.57 68.003H167.279ZM178.288 70.7137C178.288 67.725 178.896 65.1185 180.113 62.8944C181.329 60.6355 183.015 58.8979 185.169 57.6815C187.324 56.4304 189.791 55.8049 192.572 55.8049C196.151 55.8049 199.105 56.7085 201.433 58.5156C203.797 60.288 205.378 62.7901 206.177 66.0221H198.306C197.889 64.771 197.176 63.798 196.168 63.1029C195.195 62.3731 193.979 62.0082 192.519 62.0082C190.434 62.0082 188.784 62.7728 187.567 64.3019C186.351 65.7962 185.743 67.9335 185.743 70.7137C185.743 73.4591 186.351 75.5964 187.567 77.1255C188.784 78.6199 190.434 79.367 192.519 79.367C195.473 79.367 197.402 78.0464 198.306 75.4053H206.177C205.378 78.533 203.797 81.0178 201.433 82.8597C199.07 84.7015 196.116 85.6225 192.572 85.6225C189.791 85.6225 187.324 85.0143 185.169 83.798C183.015 82.5469 181.329 80.8093 180.113 78.5851C178.896 76.3262 178.288 73.7024 178.288 70.7137ZM215.225 52.8336C213.939 52.8336 212.862 52.4339 211.993 51.6346C211.159 50.8005 210.742 49.7753 210.742 48.559C210.742 47.3427 211.159 46.3349 211.993 45.5356C212.862 44.7015 213.939 44.2845 215.225 44.2845C216.511 44.2845 217.57 44.7015 218.405 45.5356C219.273 46.3349 219.708 47.3427 219.708 48.559C219.708 49.7753 219.273 50.8005 218.405 51.6346C217.57 52.4339 216.511 52.8336 215.225 52.8336ZM218.822 56.2741V85.1533H211.524V56.2741H218.822ZM248.499 48.7675V54.6581H233.33V63.9891H244.955V69.7754H233.33V85.1533H226.032V48.7675H248.499ZM266.498 85.6225C263.718 85.6225 261.216 85.0143 258.992 83.798C256.767 82.5469 255.012 80.7919 253.727 78.533C252.475 76.2741 251.85 73.6676 251.85 70.7137C251.85 67.7597 252.493 65.1533 253.779 62.8944C255.099 60.6355 256.889 58.8979 259.148 57.6815C261.407 56.4304 263.926 55.8049 266.707 55.8049C269.487 55.8049 272.006 56.4304 274.265 57.6815C276.524 58.8979 278.297 60.6355 279.582 62.8944C280.903 65.1533 281.563 67.7597 281.563 70.7137C281.563 73.6676 280.886 76.2741 279.53 78.533C278.21 80.7919 276.403 82.5469 274.109 83.798C271.85 85.0143 269.313 85.6225 266.498 85.6225ZM266.498 79.2628C267.819 79.2628 269.052 78.95 270.199 78.3245C271.381 77.6642 272.319 76.6911 273.014 75.4053C273.709 74.1194 274.057 72.5556 274.057 70.7137C274.057 67.9682 273.327 65.8657 271.867 64.4061C270.442 62.9118 268.688 62.1646 266.602 62.1646C264.517 62.1646 262.762 62.9118 261.337 64.4061C259.947 65.8657 259.252 67.9682 259.252 70.7137C259.252 73.4591 259.93 75.579 261.285 77.0734C262.675 78.533 264.413 79.2628 266.498 79.2628ZM299.74 85.6225C296.96 85.6225 294.458 85.0143 292.234 83.798C290.01 82.5469 288.255 80.7919 286.969 78.533C285.718 76.2741 285.092 73.6676 285.092 70.7137C285.092 67.7597 285.735 65.1533 287.021 62.8944C288.341 60.6355 290.131 58.8979 292.39 57.6815C294.649 56.4304 297.169 55.8049 299.949 55.8049C302.729 55.8049 305.249 56.4304 307.507 57.6815C309.766 58.8979 311.539 60.6355 312.825 62.8944C314.145 65.1533 314.805 67.7597 314.805 70.7137C314.805 73.6676 314.128 76.2741 312.772 78.533C311.452 80.7919 309.645 82.5469 307.351 83.798C305.092 85.0143 302.555 85.6225 299.74 85.6225ZM299.74 79.2628C301.061 79.2628 302.295 78.95 303.441 78.3245C304.623 77.6642 305.561 76.6911 306.256 75.4053C306.951 74.1194 307.299 72.5556 307.299 70.7137C307.299 67.9682 306.569 65.8657 305.11 64.4061C303.685 62.9118 301.93 62.1646 299.845 62.1646C297.759 62.1646 296.004 62.9118 294.58 64.4061C293.189 65.8657 292.494 67.9682 292.494 70.7137C292.494 73.4591 293.172 75.579 294.527 77.0734C295.918 78.533 297.655 79.2628 299.74 79.2628ZM318.282 70.6094C318.282 67.6902 318.856 65.1012 320.002 62.8423C321.184 60.5834 322.783 58.8457 324.798 57.6294C326.814 56.4131 329.055 55.8049 331.523 55.8049C333.4 55.8049 335.189 56.2219 336.892 57.056C338.595 57.8553 339.95 58.9326 340.958 60.288V46.5781H348.36V85.1533H340.958V80.8788C340.055 82.3036 338.786 83.4505 337.153 84.3193C335.519 85.1881 333.625 85.6225 331.471 85.6225C329.038 85.6225 326.814 84.9969 324.798 83.7458C322.783 82.4948 321.184 80.7398 320.002 78.4809C318.856 76.1872 318.282 73.5634 318.282 70.6094ZM341.01 70.7137C341.01 68.9413 340.663 67.4296 339.968 66.1785C339.273 64.8927 338.334 63.9196 337.153 63.2593C335.971 62.5642 334.703 62.2167 333.347 62.2167C331.992 62.2167 330.741 62.5469 329.594 63.2072C328.447 63.8675 327.509 64.8405 326.779 66.1264C326.084 67.3775 325.737 68.8718 325.737 70.6094C325.737 72.3471 326.084 73.8762 326.779 75.1967C327.509 76.4826 328.447 77.473 329.594 78.1681C330.776 78.8631 332.027 79.2107 333.347 79.2107C334.703 79.2107 335.971 78.8805 337.153 78.2202C338.334 77.5252 339.273 76.5521 339.968 75.301C340.663 74.0152 341.01 72.4861 341.01 70.7137Z" fill="#26211B"/>
<path d="M10.0458 56.9252H18.9451C18.6116 57.8533 18.5606 58.8595 18.7988 59.8166C19.0369 60.7736 19.5535 61.6386 20.2831 62.3021L34.0284 74.901L34.0297 74.8998C34.0412 74.9102 34.0506 74.9219 34.0634 74.932L55.7856 93.7592H55.2511C54.807 93.7592 54.3812 93.9356 54.0672 94.2495C53.7532 94.5635 53.5768 94.9894 53.5768 95.4334V102.131C53.5768 102.575 53.7532 103 54.0672 103.314C54.3812 103.628 54.807 103.805 55.2511 103.805H75.3423C75.7864 103.805 76.2122 103.628 76.5262 103.314C76.8402 103 77.0166 102.575 77.0166 102.131V95.4334C77.0166 94.9894 76.8402 94.5635 76.5262 94.2495C76.2122 93.9356 75.7864 93.7592 75.3423 93.7592V91.104L76.2389 90.2074C77.0187 89.4319 77.637 88.5094 78.0579 87.4933C78.4787 86.4773 78.6939 85.3878 78.6909 84.288V74.0306L84.7601 60.6783C85.3001 59.496 85.3584 58.1498 84.9225 56.9252H97.1078C98.4395 56.9237 99.7162 56.394 100.658 55.4523C101.599 54.5107 102.129 53.2341 102.131 51.9024V48.5539C102.131 48.1098 101.954 47.6839 101.64 47.37C101.326 47.056 100.9 46.8796 100.456 46.8796H93.7593V45.2053C93.7593 25.8181 77.9868 10.0456 58.5996 10.0456V6.69708H60.2739C60.7179 6.69708 61.1438 6.52069 61.4578 6.2067C61.7718 5.89271 61.9482 5.46686 61.9482 5.02281C61.9482 4.57877 61.7718 4.15291 61.4578 3.83892C61.1438 3.52494 60.7179 3.34854 60.2739 3.34854H46.8797C46.4357 3.34854 46.0098 3.52494 45.6958 3.83892C45.3818 4.15291 45.2054 4.57877 45.2054 5.02281C45.2054 5.46686 45.3818 5.89271 45.6958 6.2067C46.0098 6.52069 46.4357 6.69708 46.8797 6.69708H48.554V10.0456C29.1668 10.0456 13.3943 25.8181 13.3943 45.2053V46.8796H6.69722C6.25318 46.8796 5.82732 47.056 5.51333 47.37C5.19935 47.6839 5.02295 48.1098 5.02295 48.5539V51.9024C5.0245 53.2341 5.55419 54.5107 6.49581 55.4523C7.43743 56.394 8.7141 56.9237 10.0458 56.9252ZM22.1166 57.9926C22.2344 57.6751 22.4478 57.402 22.7272 57.2109C23.0067 57.0197 23.3385 56.9199 23.677 56.9252H24.6328C24.9542 56.9256 25.2687 57.0183 25.5389 57.1923C25.8091 57.3662 26.0237 57.6142 26.1571 57.9065L27.4157 60.6754V60.6779L30.2368 66.8842L22.5457 59.8342C22.2924 59.6093 22.1152 59.3115 22.0384 58.9816C21.9615 58.6518 21.9889 58.3062 22.1166 57.9926ZM73.6681 100.456H56.9253V97.1077H73.6681V100.456ZM81.5953 57.6931C81.7495 57.9276 81.8411 58.1976 81.8615 58.4775C81.8819 58.7574 81.8304 59.0378 81.7119 59.2922L75.4924 72.975C75.3935 73.1926 75.3424 73.4289 75.3423 73.6679V84.288C75.3441 84.9479 75.215 85.6016 74.9625 86.2112C74.71 86.8209 74.3391 87.3744 73.8713 87.8398L72.4841 89.2267C72.3287 89.3822 72.2053 89.5668 72.1212 89.7699C72.0371 89.973 71.9938 90.1908 71.9938 90.4106V93.7592H60.8984L36.5327 72.6424L30.4635 59.2924C30.3475 59.0373 30.2974 58.7571 30.3178 58.4776C30.3382 58.1981 30.4284 57.9282 30.5802 57.6926C30.732 57.4571 30.9405 57.2633 31.1866 57.1293C31.4327 56.9952 31.7085 56.925 31.9888 56.9252H33.0902C33.4014 56.9241 33.7066 57.0102 33.9713 57.1738C34.2361 57.3374 34.4496 57.5719 34.5878 57.8507L40.3595 69.3939C40.5429 69.7607 40.8544 70.0474 41.2351 70.1997L57.9778 76.8967C58.3046 77.0274 58.6642 77.0518 59.0056 76.9664L65.7027 75.2922C65.9272 75.236 66.1377 75.134 66.3208 74.9924C66.5039 74.8508 66.6557 74.6729 66.7665 74.4697L75.8603 57.7977C76.0044 57.5336 76.2169 57.3132 76.4757 57.1597C76.7344 57.0061 77.0297 56.9251 77.3305 56.9252H80.1881C80.4686 56.9226 80.7452 56.9918 80.9915 57.1262C81.2378 57.2606 81.4456 57.4557 81.5953 57.6931ZM37.8688 56.9252H72.522L64.1785 72.2218L58.7187 73.5865L43.0708 67.3266L37.8688 56.9252ZM51.9025 6.69708H55.2511V10.0456H51.9025V6.69708ZM16.7428 45.2053C16.7428 27.6646 31.0133 13.3942 48.554 13.3942H58.5996C76.1403 13.3942 90.4108 27.6646 90.4108 45.2053V46.8796H16.7428V45.2053ZM8.37149 50.2281H98.7821V51.9024C98.7816 52.3463 98.6051 52.7719 98.2912 53.0857C97.9773 53.3996 97.5517 53.5762 97.1078 53.5767H10.0458C9.60187 53.5762 9.1763 53.3996 8.86242 53.0857C8.54854 52.7719 8.37199 52.3463 8.37149 51.9024V50.2281Z" fill="#26211B"/>
</svg>
