<svg width="294" height="77" viewBox="0 0 294 77" fill="none" xmlns="http://www.w3.org/2000/svg">
<path d="M110.444 44L104.9 34.208H102.524V44H97.484V18.872H106.916C108.86 18.872 110.516 19.22 111.884 19.916C113.252 20.588 114.272 21.512 114.944 22.688C115.64 23.84 115.988 25.136 115.988 26.576C115.988 28.232 115.508 29.732 114.548 31.076C113.588 32.396 112.16 33.308 110.264 33.812L116.276 44H110.444ZM102.524 30.428H106.736C108.104 30.428 109.124 30.104 109.796 29.456C110.468 28.784 110.804 27.86 110.804 26.684C110.804 25.532 110.468 24.644 109.796 24.02C109.124 23.372 108.104 23.048 106.736 23.048H102.524V30.428ZM139.087 33.596C139.087 34.316 139.039 34.964 138.943 35.54H124.363C124.483 36.98 124.987 38.108 125.875 38.924C126.763 39.74 127.855 40.148 129.151 40.148C131.023 40.148 132.355 39.344 133.147 37.736H138.583C138.007 39.656 136.903 41.24 135.271 42.488C133.639 43.712 131.635 44.324 129.259 44.324C127.339 44.324 125.611 43.904 124.075 43.064C122.563 42.2 121.375 40.988 120.511 39.428C119.671 37.868 119.25 36.068 119.25 34.028C119.25 31.964 119.671 30.152 120.511 28.592C121.351 27.032 122.527 25.832 124.039 24.992C125.551 24.152 127.291 23.732 129.259 23.732C131.155 23.732 132.847 24.14 134.335 24.956C135.847 25.772 137.011 26.936 137.827 28.448C138.667 29.936 139.087 31.652 139.087 33.596ZM133.867 32.156C133.843 30.86 133.375 29.828 132.463 29.06C131.551 28.268 130.435 27.872 129.115 27.872C127.867 27.872 126.811 28.256 125.947 29.024C125.107 29.768 124.591 30.812 124.399 32.156H133.867ZM141.469 34.028C141.469 31.964 141.889 30.164 142.729 28.628C143.569 27.068 144.733 25.868 146.221 25.028C147.709 24.164 149.413 23.732 151.333 23.732C153.805 23.732 155.845 24.356 157.453 25.604C159.085 26.828 160.177 28.556 160.729 30.788H155.293C155.005 29.924 154.513 29.252 153.817 28.772C153.145 28.268 152.305 28.016 151.297 28.016C149.857 28.016 148.717 28.544 147.877 29.6C147.037 30.632 146.617 32.108 146.617 34.028C146.617 35.924 147.037 37.4 147.877 38.456C148.717 39.488 149.857 40.004 151.297 40.004C153.337 40.004 154.669 39.092 155.293 37.268H160.729C160.177 39.428 159.085 41.144 157.453 42.416C155.821 43.688 153.781 44.324 151.333 44.324C149.413 44.324 147.709 43.904 146.221 43.064C144.733 42.2 143.569 41 142.729 39.464C141.889 37.904 141.469 36.092 141.469 34.028ZM166.978 21.68C166.09 21.68 165.346 21.404 164.746 20.852C164.17 20.276 163.882 19.568 163.882 18.728C163.882 17.888 164.17 17.192 164.746 16.64C165.346 16.064 166.09 15.776 166.978 15.776C167.866 15.776 168.598 16.064 169.174 16.64C169.774 17.192 170.074 17.888 170.074 18.728C170.074 19.568 169.774 20.276 169.174 20.852C168.598 21.404 167.866 21.68 166.978 21.68ZM169.462 24.056V44H164.422V24.056H169.462ZM189.957 18.872V22.94H179.481V29.384H187.509V33.38H179.481V44H174.441V18.872H189.957ZM202.387 44.324C200.467 44.324 198.739 43.904 197.203 43.064C195.667 42.2 194.455 40.988 193.567 39.428C192.703 37.868 192.271 36.068 192.271 34.028C192.271 31.988 192.715 30.188 193.603 28.628C194.515 27.068 195.751 25.868 197.311 25.028C198.871 24.164 200.611 23.732 202.531 23.732C204.451 23.732 206.191 24.164 207.751 25.028C209.311 25.868 210.535 27.068 211.423 28.628C212.335 30.188 212.791 31.988 212.791 34.028C212.791 36.068 212.323 37.868 211.387 39.428C210.475 40.988 209.227 42.2 207.643 43.064C206.083 43.904 204.331 44.324 202.387 44.324ZM202.387 39.932C203.299 39.932 204.151 39.716 204.943 39.284C205.759 38.828 206.407 38.156 206.887 37.268C207.367 36.38 207.607 35.3 207.607 34.028C207.607 32.132 207.103 30.68 206.095 29.672C205.111 28.64 203.899 28.124 202.459 28.124C201.019 28.124 199.807 28.64 198.823 29.672C197.863 30.68 197.383 32.132 197.383 34.028C197.383 35.924 197.851 37.388 198.787 38.42C199.747 39.428 200.947 39.932 202.387 39.932ZM225.344 44.324C223.424 44.324 221.696 43.904 220.16 43.064C218.624 42.2 217.412 40.988 216.524 39.428C215.66 37.868 215.228 36.068 215.228 34.028C215.228 31.988 215.672 30.188 216.56 28.628C217.472 27.068 218.708 25.868 220.268 25.028C221.828 24.164 223.568 23.732 225.488 23.732C227.408 23.732 229.148 24.164 230.708 25.028C232.268 25.868 233.492 27.068 234.38 28.628C235.292 30.188 235.748 31.988 235.748 34.028C235.748 36.068 235.28 37.868 234.344 39.428C233.432 40.988 232.184 42.2 230.6 43.064C229.04 43.904 227.288 44.324 225.344 44.324ZM225.344 39.932C226.256 39.932 227.108 39.716 227.9 39.284C228.716 38.828 229.364 38.156 229.844 37.268C230.324 36.38 230.564 35.3 230.564 34.028C230.564 32.132 230.06 30.68 229.052 29.672C228.068 28.64 226.856 28.124 225.416 28.124C223.976 28.124 222.764 28.64 221.78 29.672C220.82 30.68 220.34 32.132 220.34 34.028C220.34 35.924 220.808 37.388 221.744 38.42C222.704 39.428 223.904 39.932 225.344 39.932ZM238.149 33.956C238.149 31.94 238.545 30.152 239.337 28.592C240.153 27.032 241.257 25.832 242.649 24.992C244.041 24.152 245.589 23.732 247.293 23.732C248.589 23.732 249.825 24.02 251.001 24.596C252.177 25.148 253.113 25.892 253.809 26.828V17.36H258.921V44H253.809V41.048C253.185 42.032 252.309 42.824 251.181 43.424C250.053 44.024 248.745 44.324 247.257 44.324C245.577 44.324 244.041 43.892 242.649 43.028C241.257 42.164 240.153 40.952 239.337 39.392C238.545 37.808 238.149 35.996 238.149 33.956ZM253.845 34.028C253.845 32.804 253.605 31.76 253.125 30.896C252.645 30.008 251.997 29.336 251.181 28.88C250.365 28.4 249.489 28.16 248.553 28.16C247.617 28.16 246.753 28.388 245.961 28.844C245.169 29.3 244.521 29.972 244.017 30.86C243.537 31.724 243.297 32.756 243.297 33.956C243.297 35.156 243.537 36.212 244.017 37.124C244.521 38.012 245.169 38.696 245.961 39.176C246.777 39.656 247.641 39.896 248.553 39.896C249.489 39.896 250.365 39.668 251.181 39.212C251.997 38.732 252.645 38.06 253.125 37.196C253.605 36.308 253.845 35.252 253.845 34.028Z" fill="white"/>
<path d="M6.9375 39.3125H13.0834C12.853 39.9535 12.8179 40.6483 12.9823 41.3093C13.1468 41.9702 13.5035 42.5675 14.0074 43.0258L23.4999 51.7266L23.5008 51.7257C23.5087 51.7329 23.5152 51.741 23.5241 51.748L38.5254 64.75H38.1562C37.8496 64.75 37.5555 64.8718 37.3387 65.0887C37.1218 65.3055 37 65.5996 37 65.9062V70.5312C37 70.8379 37.1218 71.132 37.3387 71.3488C37.5555 71.5657 37.8496 71.6875 38.1562 71.6875H52.0312C52.3379 71.6875 52.632 71.5657 52.8488 71.3488C53.0657 71.132 53.1875 70.8379 53.1875 70.5312V65.9062C53.1875 65.5996 53.0657 65.3055 52.8488 65.0887C52.632 64.8718 52.3379 64.75 52.0312 64.75V62.9163L52.6504 62.2972C53.189 61.7616 53.6159 61.1245 53.9066 60.4228C54.1973 59.7211 54.3458 58.9688 54.3438 58.2092V51.1255L58.5352 41.9044C58.9081 41.0879 58.9483 40.1582 58.6473 39.3125H67.0625C67.9821 39.3114 68.8638 38.9456 69.5141 38.2953C70.1644 37.6451 70.5302 36.7634 70.5312 35.8438V33.5312C70.5312 33.2246 70.4094 32.9305 70.1926 32.7137C69.9758 32.4968 69.6817 32.375 69.375 32.375H64.75V31.2188C64.75 17.83 53.8575 6.9375 40.4688 6.9375V4.625H41.625C41.9317 4.625 42.2258 4.50318 42.4426 4.28634C42.6594 4.0695 42.7812 3.77541 42.7812 3.46875C42.7812 3.16209 42.6594 2.868 42.4426 2.65116C42.2258 2.43432 41.9317 2.3125 41.625 2.3125H32.375C32.0683 2.3125 31.7742 2.43432 31.5574 2.65116C31.3406 2.868 31.2188 3.16209 31.2188 3.46875C31.2188 3.77541 31.3406 4.0695 31.5574 4.28634C31.7742 4.50318 32.0683 4.625 32.375 4.625H33.5312V6.9375C20.1425 6.9375 9.25 17.83 9.25 31.2188V32.375H4.625C4.31834 32.375 4.02425 32.4968 3.80741 32.7137C3.59057 32.9305 3.46875 33.2246 3.46875 33.5312V35.8438C3.46982 36.7634 3.83562 37.6451 4.48591 38.2953C5.13619 38.9456 6.01786 39.3114 6.9375 39.3125ZM15.2736 40.0496C15.355 39.8304 15.5023 39.6418 15.6953 39.5098C15.8883 39.3778 16.1175 39.3089 16.3513 39.3125H17.0113C17.2333 39.3128 17.4505 39.3768 17.6371 39.4969C17.8237 39.6171 17.9718 39.7883 18.0639 39.9902L18.9332 41.9024V41.9041L20.8814 46.1902L15.5699 41.3215C15.395 41.1662 15.2726 40.9604 15.2196 40.7327C15.1665 40.5049 15.1854 40.2662 15.2736 40.0496ZM50.875 69.375H39.3125V67.0625H50.875V69.375ZM56.3496 39.8428C56.456 40.0047 56.5193 40.1912 56.5334 40.3845C56.5475 40.5778 56.5119 40.7715 56.4301 40.9471L52.1349 50.3965C52.0666 50.5468 52.0313 50.7099 52.0312 50.875V58.2092C52.0325 58.6649 51.9433 59.1164 51.7689 59.5374C51.5946 59.9584 51.3384 60.3407 51.0153 60.6621L50.0574 61.6199C49.95 61.7273 49.8649 61.8547 49.8067 61.995C49.7486 62.1353 49.7187 62.2857 49.7188 62.4375V64.75H42.0563L25.2294 50.1668L21.038 40.9473C20.9579 40.7711 20.9233 40.5776 20.9374 40.3846C20.9514 40.1916 21.0138 40.0052 21.1186 39.8425C21.2234 39.6798 21.3674 39.546 21.5373 39.4534C21.7073 39.3608 21.8978 39.3124 22.0913 39.3125H22.852C23.0669 39.3117 23.2777 39.3712 23.4605 39.4842C23.6433 39.5972 23.7908 39.7591 23.8862 39.9516L27.8721 47.9234C27.9988 48.1767 28.2139 48.3747 28.4768 48.4798L40.0393 53.1048C40.265 53.1951 40.5134 53.2119 40.7491 53.153L45.3741 51.9967C45.5292 51.9579 45.6745 51.8875 45.801 51.7897C45.9274 51.6919 46.0322 51.569 46.1088 51.4287L52.389 39.9151C52.4885 39.7327 52.6353 39.5804 52.8139 39.4744C52.9926 39.3684 53.1965 39.3125 53.4043 39.3125H55.3777C55.5715 39.3107 55.7625 39.3585 55.9326 39.4513C56.1027 39.5441 56.2462 39.6789 56.3496 39.8428ZM26.1521 39.3125H50.0835L44.3215 49.8763L40.551 50.8188L29.7445 46.4957L26.1521 39.3125ZM35.8438 4.625H38.1562V6.9375H35.8438V4.625ZM11.5625 31.2188C11.5625 19.1052 21.4177 9.25 33.5312 9.25H40.4688C52.5823 9.25 62.4375 19.1052 62.4375 31.2188V32.375H11.5625V31.2188ZM5.78125 34.6875H68.2188V35.8438C68.2184 36.1503 68.0965 36.4442 67.8797 36.661C67.6629 36.8777 67.369 36.9997 67.0625 37H6.9375C6.63095 36.9997 6.33705 36.8777 6.12029 36.661C5.90352 36.4442 5.78159 36.1503 5.78125 35.8438V34.6875Z" fill="#FDD277"/>
<path d="M99.1904 69.0439L101.788 64.0469H103.278L99.8467 70.2881V74H98.5342V70.2881L95.1025 64.0469H96.6064L99.1904 69.0439ZM106.983 74.1367C105.981 74.1367 105.165 73.8086 104.536 73.1523C103.907 72.4915 103.593 71.6097 103.593 70.5068V70.2744C103.593 69.5407 103.732 68.8867 104.01 68.3125C104.292 67.7337 104.684 67.2826 105.186 66.959C105.691 66.6309 106.238 66.4668 106.826 66.4668C107.788 66.4668 108.535 66.7835 109.068 67.417C109.602 68.0505 109.868 68.9574 109.868 70.1377V70.6641H104.857C104.876 71.3932 105.088 71.9834 105.493 72.4346C105.903 72.8812 106.423 73.1045 107.052 73.1045C107.498 73.1045 107.877 73.0133 108.187 72.8311C108.496 72.6488 108.768 72.4072 109 72.1064L109.772 72.708C109.153 73.6605 108.223 74.1367 106.983 74.1367ZM106.826 67.5059C106.316 67.5059 105.887 67.6927 105.541 68.0664C105.195 68.4355 104.98 68.9551 104.898 69.625H108.604V69.5293C108.567 68.8867 108.394 68.39 108.084 68.0391C107.774 67.6836 107.355 67.5059 106.826 67.5059ZM115.645 72.0381C115.645 71.6963 115.515 71.432 115.255 71.2451C115 71.0537 114.551 70.8896 113.908 70.7529C113.27 70.6162 112.762 70.4521 112.384 70.2607C112.01 70.0693 111.732 69.8415 111.55 69.5771C111.372 69.3128 111.283 68.9984 111.283 68.6338C111.283 68.0277 111.538 67.515 112.049 67.0957C112.564 66.6764 113.22 66.4668 114.018 66.4668C114.856 66.4668 115.535 66.6833 116.055 67.1162C116.579 67.5492 116.841 68.1029 116.841 68.7773H115.569C115.569 68.431 115.421 68.1325 115.125 67.8818C114.833 67.6312 114.464 67.5059 114.018 67.5059C113.557 67.5059 113.197 67.6061 112.938 67.8066C112.678 68.0072 112.548 68.2692 112.548 68.5928C112.548 68.8981 112.669 69.1283 112.91 69.2832C113.152 69.4382 113.587 69.5863 114.216 69.7275C114.849 69.8688 115.362 70.0374 115.754 70.2334C116.146 70.4294 116.435 70.6663 116.622 70.9443C116.813 71.2178 116.909 71.5527 116.909 71.9492C116.909 72.61 116.645 73.141 116.116 73.542C115.588 73.9385 114.902 74.1367 114.059 74.1367C113.466 74.1367 112.942 74.0319 112.486 73.8223C112.031 73.6126 111.673 73.321 111.413 72.9473C111.158 72.569 111.03 72.1611 111.03 71.7236H112.295C112.318 72.1475 112.486 72.4847 112.801 72.7354C113.12 72.9814 113.539 73.1045 114.059 73.1045C114.537 73.1045 114.92 73.0088 115.207 72.8174C115.499 72.6214 115.645 72.3617 115.645 72.0381ZM119.972 71.1904H118.83L118.741 64.0469H120.067L119.972 71.1904ZM118.693 73.3643C118.693 73.1592 118.755 72.9883 118.878 72.8516C119.006 72.7103 119.192 72.6396 119.438 72.6396C119.685 72.6396 119.871 72.7103 119.999 72.8516C120.127 72.9883 120.19 73.1592 120.19 73.3643C120.19 73.5693 120.127 73.7402 119.999 73.877C119.871 74.0091 119.685 74.0752 119.438 74.0752C119.192 74.0752 119.006 74.0091 118.878 73.877C118.755 73.7402 118.693 73.5693 118.693 73.3643ZM128.872 69.0439L131.47 64.0469H132.96L129.528 70.2881V74H128.216V70.2881L124.784 64.0469H126.288L128.872 69.0439ZM133.261 70.2334C133.261 69.5088 133.402 68.8571 133.685 68.2783C133.972 67.6995 134.368 67.2529 134.874 66.9385C135.384 66.624 135.965 66.4668 136.617 66.4668C137.624 66.4668 138.438 66.8154 139.058 67.5127C139.682 68.21 139.994 69.1374 139.994 70.2949V70.3838C139.994 71.1038 139.855 71.751 139.577 72.3252C139.304 72.8949 138.91 73.3392 138.395 73.6582C137.884 73.9772 137.296 74.1367 136.631 74.1367C135.628 74.1367 134.815 73.7881 134.19 73.0908C133.571 72.3936 133.261 71.4707 133.261 70.3223V70.2334ZM134.532 70.3838C134.532 71.2041 134.721 71.8626 135.1 72.3594C135.482 72.8561 135.993 73.1045 136.631 73.1045C137.273 73.1045 137.784 72.8538 138.162 72.3525C138.54 71.8467 138.729 71.1403 138.729 70.2334C138.729 69.4222 138.536 68.766 138.148 68.2646C137.766 67.7588 137.255 67.5059 136.617 67.5059C135.993 67.5059 135.489 67.7542 135.106 68.251C134.724 68.7477 134.532 69.4587 134.532 70.3838ZM146.146 73.2686C145.654 73.8473 144.932 74.1367 143.979 74.1367C143.191 74.1367 142.59 73.9089 142.175 73.4531C141.765 72.9928 141.557 72.3138 141.553 71.416V66.6035H142.817V71.3818C142.817 72.5029 143.273 73.0635 144.185 73.0635C145.151 73.0635 145.793 72.7035 146.112 71.9834V66.6035H147.377V74H146.174L146.146 73.2686ZM159.326 72.2568L160.748 66.6035H162.013L159.859 74H158.834L157.036 68.3945L155.286 74H154.261L152.114 66.6035H153.372L154.828 72.1406L156.551 66.6035H157.569L159.326 72.2568ZM167.871 74C167.798 73.8542 167.739 73.5944 167.693 73.2207C167.105 73.8314 166.404 74.1367 165.588 74.1367C164.859 74.1367 164.259 73.9316 163.79 73.5215C163.325 73.1068 163.093 72.5827 163.093 71.9492C163.093 71.179 163.384 70.582 163.968 70.1582C164.556 69.7298 165.381 69.5156 166.442 69.5156H167.673V68.9346C167.673 68.4925 167.541 68.1416 167.276 67.8818C167.012 67.6175 166.622 67.4854 166.107 67.4854C165.656 67.4854 165.278 67.5993 164.973 67.8271C164.667 68.055 164.515 68.3307 164.515 68.6543H163.243C163.243 68.2852 163.373 67.9297 163.633 67.5879C163.897 67.2415 164.253 66.9681 164.699 66.7676C165.15 66.5671 165.645 66.4668 166.183 66.4668C167.035 66.4668 167.702 66.681 168.186 67.1094C168.669 67.5332 168.919 68.1188 168.938 68.8662V72.2705C168.938 72.9495 169.024 73.4896 169.197 73.8906V74H167.871ZM165.772 73.0361C166.169 73.0361 166.545 72.9336 166.9 72.7285C167.256 72.5234 167.513 72.2568 167.673 71.9287V70.4111H166.682C165.132 70.4111 164.357 70.8646 164.357 71.7715C164.357 72.168 164.49 72.4779 164.754 72.7012C165.018 72.9245 165.358 73.0361 165.772 73.0361ZM172.116 66.6035L172.157 67.5332C172.722 66.8223 173.461 66.4668 174.372 66.4668C175.935 66.4668 176.724 67.3486 176.737 69.1123V74H175.473V69.1055C175.468 68.5723 175.345 68.1781 175.104 67.9229C174.867 67.6676 174.495 67.54 173.989 67.54C173.579 67.54 173.219 67.6494 172.909 67.8682C172.599 68.0869 172.358 68.374 172.185 68.7295V74H170.92V66.6035H172.116ZM180.36 64.8125V66.6035H181.741V67.5811H180.36V72.168C180.36 72.4642 180.422 72.6875 180.545 72.8379C180.668 72.9837 180.878 73.0566 181.174 73.0566C181.32 73.0566 181.52 73.0293 181.775 72.9746V74C181.443 74.0911 181.119 74.1367 180.805 74.1367C180.24 74.1367 179.813 73.9658 179.526 73.624C179.239 73.2822 179.096 72.7969 179.096 72.168V67.5811H177.749V66.6035H179.096V64.8125H180.36ZM188.071 74H186.807V66.6035H188.071V74ZM186.704 64.6416C186.704 64.4365 186.766 64.2633 186.889 64.1221C187.016 63.9808 187.203 63.9102 187.449 63.9102C187.695 63.9102 187.882 63.9808 188.01 64.1221C188.137 64.2633 188.201 64.4365 188.201 64.6416C188.201 64.8467 188.137 65.0176 188.01 65.1543C187.882 65.291 187.695 65.3594 187.449 65.3594C187.203 65.3594 187.016 65.291 186.889 65.1543C186.766 65.0176 186.704 64.8467 186.704 64.6416ZM191.817 64.8125V66.6035H193.198V67.5811H191.817V72.168C191.817 72.4642 191.879 72.6875 192.002 72.8379C192.125 72.9837 192.335 73.0566 192.631 73.0566C192.777 73.0566 192.977 73.0293 193.232 72.9746V74C192.9 74.0911 192.576 74.1367 192.262 74.1367C191.697 74.1367 191.271 73.9658 190.983 73.624C190.696 73.2822 190.553 72.7969 190.553 72.168V67.5811H189.206V66.6035H190.553V64.8125H191.817ZM194.709 73.3369C194.709 73.1182 194.773 72.9359 194.9 72.79C195.033 72.6442 195.229 72.5713 195.488 72.5713C195.748 72.5713 195.944 72.6442 196.076 72.79C196.213 72.9359 196.281 73.1182 196.281 73.3369C196.281 73.5465 196.213 73.722 196.076 73.8633C195.944 74.0046 195.748 74.0752 195.488 74.0752C195.229 74.0752 195.033 74.0046 194.9 73.8633C194.773 73.722 194.709 73.5465 194.709 73.3369Z" fill="#FDD277" fill-opacity="0.45"/>
</svg>
